<svg xmlns="http://www.w3.org/2000/svg" width="930" height="360" viewBox="0 0 930 360">
<rect width="100%" height="100%" fill="#ffffff" />
<text x="24" y="26" font-size="18" font-family="Arial, sans-serif">Stability estimate mean by group</text>
<line x1="70" y1="280" x2="890" y2="280" stroke="#111827" />
<line x1="70" y1="40" x2="70" y2="280" stroke="#111827" />
<rect x="87.6" y="41.9" width="56" height="238.1" fill="#2563eb" />
<text x="115.6" y="304" text-anchor="middle" font-size="12">10%/200</text>
<text x="115.6" y="33.9" text-anchor="middle" font-size="12">8914.05</text>
<rect x="178.7" y="40.5" width="56" height="239.5" fill="#2563eb" />
<text x="206.7" y="304" text-anchor="middle" font-size="12">10%/300</text>
<text x="206.7" y="32.5" text-anchor="middle" font-size="12">8965.6</text>
<rect x="269.8" y="40.0" width="56" height="240.0" fill="#2563eb" />
<text x="297.8" y="304" text-anchor="middle" font-size="12">10%/400</text>
<text x="297.8" y="32.0" text-anchor="middle" font-size="12">8983.51</text>
<rect x="360.9" y="68.4" width="56" height="211.6" fill="#2563eb" />
<text x="388.9" y="304" text-anchor="middle" font-size="12">20%/200</text>
<text x="388.9" y="60.4" text-anchor="middle" font-size="12">7920.14</text>
<rect x="452.0" y="66.4" width="56" height="213.6" fill="#2563eb" />
<text x="480.0" y="304" text-anchor="middle" font-size="12">20%/300</text>
<text x="480.0" y="58.4" text-anchor="middle" font-size="12">7994.22</text>
<rect x="543.1" y="66.3" width="56" height="213.7" fill="#2563eb" />
<text x="571.1" y="304" text-anchor="middle" font-size="12">20%/400</text>
<text x="571.1" y="58.3" text-anchor="middle" font-size="12">7997.62</text>
<rect x="634.2" y="93.7" width="56" height="186.3" fill="#2563eb" />
<text x="662.2" y="304" text-anchor="middle" font-size="12">30%/200</text>
<text x="662.2" y="85.7" text-anchor="middle" font-size="12">6974.25</text>
<rect x="725.3" y="93.4" width="56" height="186.6" fill="#2563eb" />
<text x="753.3" y="304" text-anchor="middle" font-size="12">30%/300</text>
<text x="753.3" y="85.4" text-anchor="middle" font-size="12">6982.81</text>
<rect x="816.4" y="93.5" width="56" height="186.5" fill="#2563eb" />
<text x="844.4" y="304" text-anchor="middle" font-size="12">30%/400</text>
<text x="844.4" y="85.5" text-anchor="middle" font-size="12">6980.14</text>
</svg>