<svg xmlns="http://www.w3.org/2000/svg" width="930" height="360" viewBox="0 0 930 360">
<rect width="100%" height="100%" fill="#ffffff" />
<text x="24" y="26" font-size="18" font-family="Arial, sans-serif">Stability estimate mean by group</text>
<line x1="70" y1="280" x2="890" y2="280" stroke="#111827" />
<line x1="70" y1="40" x2="70" y2="280" stroke="#111827" />
<rect x="87.6" y="66.4" width="56" height="213.6" fill="#2563eb" />
<text x="115.6" y="304" text-anchor="middle" font-size="12">10%/200</text>
<text x="115.6" y="58.4" text-anchor="middle" font-size="12">22612.07</text>
<rect x="178.7" y="40.1" width="56" height="239.9" fill="#2563eb" />
<text x="206.7" y="304" text-anchor="middle" font-size="12">10%/300</text>
<text x="206.7" y="32.1" text-anchor="middle" font-size="12">25400.03</text>
<rect x="269.8" y="40.0" width="56" height="240.0" fill="#2563eb" />
<text x="297.8" y="304" text-anchor="middle" font-size="12">10%/400</text>
<text x="297.8" y="32.0" text-anchor="middle" font-size="12">25408.01</text>
<rect x="360.9" y="108.5" width="56" height="171.5" fill="#2563eb" />
<text x="388.9" y="304" text-anchor="middle" font-size="12">20%/200</text>
<text x="388.9" y="100.5" text-anchor="middle" font-size="12">18151.2</text>
<rect x="452.0" y="98.4" width="56" height="181.6" fill="#2563eb" />
<text x="480.0" y="304" text-anchor="middle" font-size="12">20%/300</text>
<text x="480.0" y="90.4" text-anchor="middle" font-size="12">19223.3</text>
<rect x="543.1" y="97.1" width="56" height="182.9" fill="#2563eb" />
<text x="571.1" y="304" text-anchor="middle" font-size="12">20%/400</text>
<text x="571.1" y="89.1" text-anchor="middle" font-size="12">19367.51</text>
<rect x="634.2" y="154.7" width="56" height="125.3" fill="#2563eb" />
<text x="662.2" y="304" text-anchor="middle" font-size="12">30%/200</text>
<text x="662.2" y="146.7" text-anchor="middle" font-size="12">13268.58</text>
<rect x="725.3" y="146.6" width="56" height="133.4" fill="#2563eb" />
<text x="753.3" y="304" text-anchor="middle" font-size="12">30%/300</text>
<text x="753.3" y="138.6" text-anchor="middle" font-size="12">14117.65</text>
<rect x="816.4" y="149.5" width="56" height="130.5" fill="#2563eb" />
<text x="844.4" y="304" text-anchor="middle" font-size="12">30%/400</text>
<text x="844.4" y="141.5" text-anchor="middle" font-size="12">13820.42</text>
</svg>