<svg xmlns="http://www.w3.org/2000/svg" width="930" height="360" viewBox="0 0 930 360">
<rect width="100%" height="100%" fill="#ffffff" />
<text x="24" y="26" font-size="18" font-family="Arial, sans-serif">Stability estimate mean by group</text>
<line x1="70" y1="280" x2="890" y2="280" stroke="#111827" />
<line x1="70" y1="40" x2="70" y2="280" stroke="#111827" />
<rect x="87.6" y="41.6" width="56" height="238.4" fill="#2563eb" />
<text x="115.6" y="304" text-anchor="middle" font-size="12">10%/200</text>
<text x="115.6" y="33.6" text-anchor="middle" font-size="12">13171.98</text>
<rect x="178.7" y="40.0" width="56" height="240.0" fill="#2563eb" />
<text x="206.7" y="304" text-anchor="middle" font-size="12">10%/300</text>
<text x="206.7" y="32.0" text-anchor="middle" font-size="12">13262.04</text>
<rect x="269.8" y="40.4" width="56" height="239.6" fill="#2563eb" />
<text x="297.8" y="304" text-anchor="middle" font-size="12">10%/400</text>
<text x="297.8" y="32.4" text-anchor="middle" font-size="12">13239.84</text>
<rect x="360.9" y="67.3" width="56" height="212.7" fill="#2563eb" />
<text x="388.9" y="304" text-anchor="middle" font-size="12">20%/200</text>
<text x="388.9" y="59.3" text-anchor="middle" font-size="12">11752.94</text>
<rect x="452.0" y="65.5" width="56" height="214.5" fill="#2563eb" />
<text x="480.0" y="304" text-anchor="middle" font-size="12">20%/300</text>
<text x="480.0" y="57.5" text-anchor="middle" font-size="12">11854.02</text>
<rect x="543.1" y="67.7" width="56" height="212.3" fill="#2563eb" />
<text x="571.1" y="304" text-anchor="middle" font-size="12">20%/400</text>
<text x="571.1" y="59.7" text-anchor="middle" font-size="12">11728.87</text>
<rect x="634.2" y="94.1" width="56" height="185.9" fill="#2563eb" />
<text x="662.2" y="304" text-anchor="middle" font-size="12">30%/200</text>
<text x="662.2" y="86.1" text-anchor="middle" font-size="12">10272.42</text>
<rect x="725.3" y="93.6" width="56" height="186.4" fill="#2563eb" />
<text x="753.3" y="304" text-anchor="middle" font-size="12">30%/300</text>
<text x="753.3" y="85.6" text-anchor="middle" font-size="12">10300.04</text>
<rect x="816.4" y="94.1" width="56" height="185.9" fill="#2563eb" />
<text x="844.4" y="304" text-anchor="middle" font-size="12">30%/400</text>
<text x="844.4" y="86.1" text-anchor="middle" font-size="12">10273.9</text>
</svg>